<svg width="56" height="56" viewBox="0 0 56 56" fill="none" xmlns="http://www.w3.org/2000/svg">
<g clip-path="url(#clip0_201_629)">
<rect width="56" height="56" rx="6" fill="#EAF6FB"/>
<path d="M8.39932 43.543C8.39932 42.0154 9.6237 40.7698 11.1511 40.7434L18.7339 40.6127V32.9C18.7339 31.3536 19.9875 30.1 21.5339 30.1H44.7484C46.3229 30.1 47.5993 31.3764 47.5993 32.9509V73.5763C47.5993 75.1509 46.3229 76.4272 44.7484 76.4272H11.2502C9.67572 76.4272 8.39932 75.1509 8.39932 73.5763V43.543Z" fill="white"/>
<path d="M8.39932 73.5767V43.5429C8.39942 42.0632 9.54834 40.8483 11.0086 40.7497L11.1508 40.7436L18.7339 40.613V32.9C18.7339 31.4019 19.9103 30.1784 21.3897 30.1034L21.5339 30.1H44.7487L44.895 30.1034C46.4013 30.1797 47.5992 31.4254 47.5993 32.9506V73.5767L47.5959 73.7229C47.5221 75.1808 46.3529 76.35 44.895 76.4238L44.7487 76.4272V75.7272C45.9364 75.7271 46.8992 74.7644 46.8993 73.5767V32.9506C46.8991 31.7629 45.9364 30.8002 44.7487 30.8H21.5339C20.3741 30.8 19.4339 31.7402 19.4339 32.9V41.3007L11.1631 41.4436C10.0177 41.4633 9.09942 42.3973 9.09932 43.5429V73.5767C9.09943 74.7644 10.0622 75.7271 11.2499 75.7272V76.4272C9.72467 76.4271 8.47898 75.2293 8.40274 73.7229L8.39932 73.5767ZM44.7487 75.7272V76.4272H11.2499V75.7272H44.7487Z" fill="#E2E2E2"/>
<path fill-rule="evenodd" clip-rule="evenodd" d="M19.3636 31.7279C19.5025 31.8624 19.4981 32.1307 19.3636 32.2696L10.6782 41.2352C10.5437 41.3741 9.589 41.7844 9.45016 41.6499C9.31133 41.5154 9.06421 41.8952 9.19871 41.7564L19.1347 31.4999C19.2692 31.3611 19.2248 31.5934 19.3636 31.7279Z" fill="#E2E2E2"/>
<path d="M39.0462 46.8555C39.2395 46.8555 39.3962 47.0122 39.3962 47.2055C39.3962 47.3988 39.2395 47.5555 39.0462 47.5555H16.9517C16.7584 47.5555 16.6017 47.3988 16.6017 47.2055C16.6017 47.0122 16.7584 46.8555 16.9517 46.8555H39.0462Z" fill="#E2E2E2"/>
<path d="M34.7696 51.1318C34.9629 51.1318 35.1196 51.2885 35.1196 51.4818C35.1196 51.6751 34.9629 51.8318 34.7696 51.8318H16.9517C16.7584 51.8318 16.6017 51.6751 16.6017 51.4818C16.6017 51.2885 16.7584 51.1318 16.9517 51.1318H34.7696Z" fill="#E2E2E2"/>
<path d="M42 28C42 35.732 35.732 42 28 42C20.268 42 14 35.732 14 28C14 20.268 20.268 14 28 14C35.732 14 42 20.268 42 28Z" fill="#DFF2F8"/>
<path fill-rule="evenodd" clip-rule="evenodd" d="M28 40.4444C34.8729 40.4444 40.4444 34.8729 40.4444 28C40.4444 21.1271 34.8729 15.5556 28 15.5556C21.1271 15.5556 15.5556 21.1271 15.5556 28C15.5556 34.8729 21.1271 40.4444 28 40.4444ZM28 42C35.732 42 42 35.732 42 28C42 20.268 35.732 14 28 14C20.268 14 14 20.268 14 28C14 35.732 20.268 42 28 42Z" fill="#2AA5D2"/>
<path fill-rule="evenodd" clip-rule="evenodd" d="M35.5555 22.3648C35.8562 22.6716 35.8512 23.164 35.5444 23.4647L26.3474 32.4767C25.7425 33.0694 24.7748 33.0694 24.1699 32.4767L20.4556 28.837C20.1488 28.5363 20.1438 28.0439 20.4445 27.7371C20.7451 27.4303 21.2376 27.4253 21.5444 27.7259L25.2587 31.3656L34.4556 22.3536C34.7625 22.053 35.2549 22.058 35.5555 22.3648Z" fill="#2AA5D2"/>
</g>
<defs>
<clipPath id="clip0_201_629">
<rect width="56" height="56" rx="6" fill="white"/>
</clipPath>
</defs>
</svg>
