<svg width="56" height="56" viewBox="0 0 56 56" fill="none" xmlns="http://www.w3.org/2000/svg">
<g clip-path="url(#clip0_203_588)">
<rect width="56" height="56" rx="6" fill="#EAF6FB"/>
<path d="M8.39932 43.543C8.39932 42.0154 9.6237 40.7698 11.1511 40.7434L18.7339 40.6127V32.9C18.7339 31.3536 19.9875 30.1 21.5339 30.1H44.7484C46.3229 30.1 47.5993 31.3764 47.5993 32.9509V73.5763C47.5993 75.1509 46.3229 76.4272 44.7484 76.4272H11.2502C9.67572 76.4272 8.39932 75.1509 8.39932 73.5763V43.543Z" fill="white"/>
<path d="M8.39932 73.5767V43.5429C8.39942 42.0632 9.54834 40.8483 11.0086 40.7497L11.1508 40.7436L18.7339 40.613V32.9C18.7339 31.4019 19.9103 30.1784 21.3897 30.1034L21.5339 30.1H44.7487L44.895 30.1034C46.4013 30.1797 47.5992 31.4254 47.5993 32.9506V73.5767L47.5959 73.7229C47.5221 75.1808 46.3529 76.35 44.895 76.4238L44.7487 76.4272V75.7272C45.9364 75.7271 46.8992 74.7644 46.8993 73.5767V32.9506C46.8991 31.7629 45.9364 30.8002 44.7487 30.8H21.5339C20.3741 30.8 19.4339 31.7402 19.4339 32.9V41.3007L11.1631 41.4436C10.0177 41.4633 9.09942 42.3973 9.09932 43.5429V73.5767C9.09943 74.7644 10.0622 75.7271 11.2499 75.7272V76.4272C9.72467 76.4271 8.47898 75.2293 8.40274 73.7229L8.39932 73.5767ZM44.7487 75.7272V76.4272H11.2499V75.7272H44.7487Z" fill="#E2E2E2"/>
<path fill-rule="evenodd" clip-rule="evenodd" d="M19.3636 31.7279C19.5025 31.8624 19.4981 32.1307 19.3636 32.2696L10.6782 41.2352C10.5437 41.3741 9.589 41.7844 9.45016 41.6499C9.31133 41.5154 9.06421 41.8952 9.19871 41.7564L19.1347 31.4999C19.2692 31.3611 19.2248 31.5934 19.3636 31.7279Z" fill="#E2E2E2"/>
<path d="M39.0462 46.8555C39.2395 46.8555 39.3962 47.0122 39.3962 47.2055C39.3962 47.3988 39.2395 47.5555 39.0462 47.5555H16.9517C16.7584 47.5555 16.6017 47.3988 16.6017 47.2055C16.6017 47.0122 16.7584 46.8555 16.9517 46.8555H39.0462Z" fill="#E2E2E2"/>
<path d="M34.7696 51.1318C34.9629 51.1318 35.1196 51.2885 35.1196 51.4818C35.1196 51.6751 34.9629 51.8318 34.7696 51.8318H16.9517C16.7584 51.8318 16.6017 51.6751 16.6017 51.4818C16.6017 51.2885 16.7584 51.1318 16.9517 51.1318H34.7696Z" fill="#E2E2E2"/>
<path d="M34.8856 23.6414H25.4217C25.0351 23.6414 24.725 23.9548 24.725 24.3414V25.6647C24.725 26.2884 23.971 26.6007 23.53 26.1597L16.4751 19.1048C16.2017 18.8314 16.2017 18.3882 16.4751 18.1148L23.53 11.0599C23.971 10.619 24.725 10.9313 24.725 11.5549V13.8984C24.725 14.285 25.038 14.5984 25.4246 14.5984H34.8856C40.6883 14.5984 47.2561 18.2242 48.7847 26.5194C48.9117 27.2083 47.892 27.6807 47.3351 27.2559C45.3098 25.711 41.384 23.6414 34.8856 23.6414Z" fill="#DFF2F8"/>
<path d="M16.97 18.6095L24.0247 25.6649V24.3414C24.0247 23.5725 24.6445 22.9414 25.4219 22.9414H34.8856C41.5454 22.9414 45.6191 25.0663 47.7597 26.6991C47.764 26.7024 47.7839 26.7156 47.8336 26.7169C47.8856 26.7183 47.9496 26.7054 48.0086 26.6766C48.0519 26.6554 48.0766 26.632 48.0899 26.6178C46.6223 18.7269 40.3996 15.2982 34.8856 15.2982H25.4247C24.651 15.2982 24.0247 14.6709 24.0247 13.8982V11.5548L16.97 18.6095ZM25.4247 13.8982H34.8856C40.9702 13.8982 47.8733 17.7133 49.4728 26.3922C49.6138 27.1572 49.0971 27.702 48.6238 27.9337C48.151 28.1651 47.4581 28.2301 46.9107 27.8127C45.0009 26.3559 41.2225 24.3414 34.8856 24.3414H25.4247V25.6649C25.4246 26.912 23.9168 27.5366 23.0348 26.6547L15.9801 19.6C15.4334 19.0533 15.4334 18.1664 15.9801 17.6196L23.0348 10.565C23.9168 9.68303 25.4246 10.3076 25.4247 11.5548V13.8982Z" fill="#2AA5D2"/>
<path d="M21.1143 31.4584L30.5782 31.4584C30.9648 31.4584 31.2749 31.145 31.2749 30.7584L31.2749 29.4351C31.2749 28.8115 32.0289 28.4992 32.4699 28.9401L39.5248 35.9951C39.7982 36.2684 39.7982 36.7116 39.5248 36.985L32.4699 44.0399C32.0289 44.4809 31.2749 44.1686 31.2749 43.5449L31.2749 41.2015C31.2749 40.8149 30.9619 40.5015 30.5753 40.5015L21.1143 40.5015C15.3116 40.5015 8.74378 36.8756 7.21519 28.5804C7.08825 27.8916 8.10791 27.4192 8.66485 27.844C10.6901 29.3888 14.6159 31.4584 21.1143 31.4584Z" fill="#DFF2F8"/>
<path d="M39.0299 36.4904L31.9753 29.435L31.9753 30.7584C31.9753 31.5274 31.3555 32.1584 30.578 32.1584L21.1143 32.1584C14.4545 32.1584 10.3808 30.0336 8.2402 28.4007C8.23589 28.3974 8.21605 28.3843 8.16637 28.3829C8.11434 28.3815 8.05033 28.3944 7.99137 28.4233C7.94807 28.4445 7.92333 28.4678 7.91003 28.4821C9.37762 36.3729 15.6003 39.8017 21.1143 39.8017L30.5753 39.8017C31.3489 39.8017 31.9753 40.429 31.9753 41.2017L31.9753 43.5451L39.0299 36.4904ZM30.5753 41.2017L21.1143 41.2017C15.0297 41.2017 8.12659 37.3866 6.52711 28.7077C6.38614 27.9426 6.90284 27.3978 7.37614 27.1661C7.84897 26.9347 8.54184 26.8698 9.08922 27.2871C10.999 28.7439 14.7775 30.7584 21.1143 30.7584L30.5753 30.7584L30.5753 29.435C30.5754 28.1878 32.0832 27.5632 32.9651 28.4452L40.0198 35.4998C40.5665 36.0466 40.5665 36.9335 40.0198 37.4802L32.9651 44.5349C32.0832 45.4168 30.5753 44.7922 30.5753 43.5451L30.5753 41.2017Z" fill="#2AA5D2"/>
</g>
<defs>
<clipPath id="clip0_203_588">
<rect width="56" height="56" rx="6" fill="white"/>
</clipPath>
</defs>
</svg>
