<svg width="56" height="56" viewBox="0 0 56 56" fill="none" xmlns="http://www.w3.org/2000/svg">
<rect width="56" height="56" rx="6" fill="#EAF6FB"/>
<path d="M12.4393 33.4554C12.4393 30.8891 14.5197 28.8087 17.086 28.8087C19.6523 28.8087 21.7328 30.8891 21.7328 33.4554V41.1315C21.7328 43.6978 19.6523 45.7782 17.086 45.7782C14.5197 45.7782 12.4393 43.6978 12.4393 41.1315V33.4554Z" fill="white"/>
<path d="M34.2673 33.4554C34.2673 30.8891 36.3477 28.8087 38.914 28.8087C41.4803 28.8087 43.5607 30.8891 43.5607 33.4554V41.1315C43.5607 43.6978 41.4803 45.7782 38.914 45.7782C36.3477 45.7782 34.2673 43.6978 34.2673 41.1315V33.4554Z" fill="white"/>
<path d="M20.9276 33.4551C20.9274 31.3335 19.2074 29.614 17.0858 29.614C14.9643 29.6141 13.2441 31.3336 13.244 33.4551V41.1312C13.244 43.2528 14.9642 44.9728 17.0858 44.9729C19.2075 44.9729 20.9276 43.2529 20.9276 41.1312V33.4551ZM42.7554 33.4551C42.7552 31.3336 41.0358 29.6141 38.9143 29.614C36.7927 29.614 35.0727 31.3335 35.0725 33.4551V41.1312C35.0725 43.2529 36.7926 44.9729 38.9143 44.9729C41.0359 44.9728 42.7554 43.2528 42.7554 41.1312V33.4551ZM45.7817 36.2435V28.8087C45.7817 18.988 37.8207 11.0271 28 11.0271C18.1794 11.0271 10.2184 18.988 10.2184 28.8087V36.2435C10.2184 36.688 9.8577 37.0487 9.41312 37.0487C8.96855 37.0487 8.60788 36.688 8.60785 36.2435V28.8087C8.60785 18.0989 17.2902 9.4165 28 9.4165C38.7099 9.41652 47.3922 18.0989 47.3922 28.8087V36.2435C47.3922 36.688 47.0315 37.0487 46.5869 37.0487C46.1424 37.0487 45.7817 36.688 45.7817 36.2435ZM22.5374 41.1312C22.5374 44.1421 20.0967 46.5835 17.0858 46.5835C14.075 46.5834 11.6341 44.142 11.6341 41.1312V33.4551C11.6343 30.4444 14.0751 28.0035 17.0858 28.0034C20.0966 28.0034 22.5373 30.4443 22.5374 33.4551V41.1312ZM44.366 41.1312C44.366 44.142 41.9251 46.5833 38.9143 46.5835C35.9034 46.5835 33.462 44.1421 33.462 41.1312V33.4551C33.4621 30.4443 35.9035 28.0034 38.9143 28.0034C41.925 28.0036 44.3658 30.4444 44.366 33.4551V41.1312Z" fill="#2AA5D2"/>
</svg>
