<svg width="56" height="56" viewBox="0 0 56 56" fill="none" xmlns="http://www.w3.org/2000/svg">
<rect width="56" height="56" rx="6" fill="#EAF6FB"/>
<circle cx="22.895" cy="25.4975" r="1.05" fill="#D9D9D9"/>
<path d="M13.3482 25.5821C13.699 17.6273 20.3015 11.285 28.3952 11.285C36.7135 11.285 43.4568 17.9843 43.4568 26.2483C43.4568 28.1151 43.1127 29.902 42.4841 31.5499L42.4841 31.55C42.3535 31.8922 42.2882 32.0633 42.2586 32.1969C42.2292 32.3293 42.2179 32.4224 42.2147 32.558C42.2115 32.6948 42.23 32.8455 42.2671 33.1468L42.2671 33.1469L43.0201 39.2635C43.1017 39.9256 43.1424 40.2567 43.0323 40.4974C42.9358 40.7083 42.7644 40.8758 42.5513 40.9674C42.3081 41.072 41.9781 41.0236 41.318 40.9268L41.318 40.9268L35.3603 40.0535C35.0492 40.0079 34.8937 39.9851 34.752 39.9859C34.6119 39.9867 34.5149 39.9971 34.3778 40.0259C34.2391 40.0551 34.062 40.1214 33.7079 40.2541L33.7078 40.2541C32.0557 40.8729 30.2652 41.2115 28.3952 41.2115L13.8058 26.7175C13.6313 26.5441 13.544 26.4574 13.4796 26.3497C13.4255 26.2592 13.3805 26.144 13.359 26.0408C13.3333 25.9179 13.3383 25.806 13.3482 25.5821Z" fill="white" stroke="#2AA5D2" stroke-width="1.5" stroke-linecap="round" stroke-linejoin="round"/>
<circle cx="28" cy="25.4975" r="1.05" fill="#2AA5D2"/>
<path d="M30.3176 34.4278C30.3176 40.1093 25.822 44.7151 20.2765 44.7151C19.1309 44.7151 18.0301 44.5185 17.0045 44.1566C16.6153 44.0192 16.4207 43.9505 16.2897 43.9244C16.1519 43.8969 16.0773 43.8893 15.9367 43.8883C15.8032 43.8874 15.6504 43.9083 15.3446 43.9501L9.74313 44.7151L10.8866 39.5496C10.9615 39.211 10.999 39.0417 11.0077 38.892C11.0167 38.7356 11.0125 38.6487 10.9882 38.494C10.9649 38.3458 10.894 38.1288 10.7523 37.6949C10.417 36.6685 10.2353 35.5699 10.2353 34.4278C10.2353 28.7464 14.7309 24.1406 20.2765 24.1406C25.822 24.1406 30.3176 28.7464 30.3176 34.4278Z" fill="white" stroke="#2AA5D2" stroke-width="1.5" stroke-linecap="round" stroke-linejoin="round"/>
<circle cx="33.8954" cy="25.4975" r="1.05" fill="#2AA5D2"/>
</svg>
