<svg width="175" height="156" viewBox="0 0 175 156" fill="none" xmlns="http://www.w3.org/2000/svg">
<path d="M0 154.505L4.5103 123.121C13.7314 123.926 21.0481 122.316 26.4605 118.293C31.8728 114.47 35.5813 108.938 37.5859 101.695C39.39 94.6542 39.6907 86.6071 38.488 77.5541H0V0H74.2697V80.5718C74.2697 106.926 68.0555 126.843 55.6271 140.322C43.1987 154.002 24.6564 158.729 0 154.505ZM100.73 154.505L105.241 123.121C114.462 123.926 121.778 122.316 127.191 118.293C132.603 114.47 136.312 108.938 138.316 101.695C140.12 94.6542 140.421 86.6071 139.218 77.5541H100.73V0H175V80.5718C175 106.926 168.786 126.843 156.357 140.322C143.929 154.002 125.387 158.729 100.73 154.505Z" fill="#DCEAF4"/>
</svg>
