<svg width="177" height="158" viewBox="0 0 177 158" fill="none" xmlns="http://www.w3.org/2000/svg">
<path d="M177 1.51444L172.438 33.3006C163.112 32.4855 155.711 34.1156 150.237 38.1907C144.763 42.0621 141.012 47.6655 138.985 55.0007C137.16 62.1322 136.856 70.2825 138.072 79.4516H177V158H101.881V76.3952C101.881 49.703 108.167 29.5311 120.737 15.8793C133.308 2.02384 152.062 -2.76446 177 1.51444ZM75.1185 1.51444L70.5567 33.3006C61.2302 32.4855 53.8299 34.1156 48.3557 38.1907C42.8814 42.0621 39.1306 47.6655 37.1031 55.0007C35.2783 62.1322 34.9742 70.2825 36.1907 79.4516H75.1185V158H0V76.3952C0 49.703 6.28522 29.5311 18.8557 15.8793C31.4261 2.02384 50.1804 -2.76446 75.1185 1.51444Z" fill="#DCEAF4"/>
</svg>
