<svg width="499" height="564" viewBox="0 0 499 564" fill="none" xmlns="http://www.w3.org/2000/svg">
<path fill-rule="evenodd" clip-rule="evenodd" d="M158.168 108.777C172.645 110.021 186.495 112.389 199.635 115.735C217.545 120.293 234.171 126.701 249.297 134.575C264.424 126.701 281.049 120.293 298.959 115.735C312.1 112.389 325.951 110.021 340.427 108.777C337.289 89.176 327.984 71.6347 314.561 58.2107C297.859 41.5107 274.785 31.18 249.297 31.18C223.809 31.18 200.735 41.5107 184.033 58.2107C170.611 71.6347 161.304 89.176 158.168 108.777ZM371.783 107.768H498.595V402.736C498.595 447.04 480.483 487.303 451.303 516.483C422.124 545.663 381.859 563.775 337.557 563.775H249.297H17.5373H0V546.236V139.359V133.516V126.964V125.308V107.768H17.5373H19.196H39.7453H126.813C130.344 79.9533 143.131 55.024 161.988 36.1653C184.333 13.8213 215.203 -4.77766e-05 249.297 -4.77766e-05C283.392 -4.77766e-05 314.261 13.8213 336.607 36.1653C355.463 55.024 368.251 79.9533 371.783 107.768Z" fill="#3B3B3C"/>
<path fill-rule="evenodd" clip-rule="evenodd" d="M364.131 125.308H479.399C480.311 125.308 481.057 126.053 481.057 126.964V402.736C481.057 481.661 416.481 546.236 337.557 546.236H249.297V154.538C280.333 136.517 319.389 125.308 364.131 125.308Z" fill="#49A243"/>
<path fill-rule="evenodd" clip-rule="evenodd" d="M134.463 125.308H19.196C18.284 125.308 17.5374 126.053 17.5374 126.964C17.5374 266.721 17.5374 406.479 17.5374 546.236C94.7907 546.236 172.044 546.236 249.297 546.236V154.538C218.261 136.517 179.205 125.308 134.463 125.308Z" fill="#59C146"/>
<path fill-rule="evenodd" clip-rule="evenodd" d="M429.177 512.957C404.279 533.71 372.311 546.236 337.557 546.236H249.297V394.415C329.007 394.785 397.649 443.222 429.177 512.957Z" fill="#59C146"/>
<path fill-rule="evenodd" clip-rule="evenodd" d="M55.8413 546.236H249.297V394.415C248.991 394.413 248.685 394.402 248.379 394.402C156.113 394.402 78.508 458.813 55.8413 546.236Z" fill="#7BCC55"/>
<path fill-rule="evenodd" clip-rule="evenodd" d="M263.043 368.029C257.556 360.595 252.924 352.485 249.297 343.852C245.736 352.325 241.208 360.293 235.853 367.617C239.941 366.893 244.125 366.516 248.379 366.516C253.376 366.516 258.279 367.037 263.043 368.029ZM141.143 181.204C173.521 181.204 202.837 194.329 224.059 215.549C234.733 226.225 243.359 238.949 249.297 253.081C255.235 238.949 263.86 226.225 274.535 215.549C295.756 194.329 325.072 181.204 357.452 181.204C389.832 181.204 419.148 194.329 440.368 215.549C461.589 236.772 474.716 266.088 474.716 298.467C474.716 330.847 461.589 360.161 440.368 381.384C419.148 402.604 389.832 415.731 357.452 415.731C340.581 415.731 324.544 412.165 310.048 405.751L304.332 411.467L258.023 457.776L248.379 467.42L238.733 457.776L192.425 411.467L187.265 406.307C173.109 412.372 157.517 415.731 141.143 415.731C108.763 415.731 79.4467 402.604 58.2253 381.384C37.0053 360.163 23.8787 330.847 23.8787 298.467C23.8787 266.088 37.0053 236.771 58.2253 215.549C79.4467 194.329 108.763 181.204 141.143 181.204Z" fill="#3B3B3C"/>
<path fill-rule="evenodd" clip-rule="evenodd" d="M357.452 198.741C412.528 198.741 457.176 243.391 457.176 298.467C457.176 353.543 412.528 398.192 357.452 398.192C302.376 398.192 257.727 353.543 257.727 298.467C257.727 243.391 302.376 198.741 357.452 198.741Z" fill="white"/>
<path fill-rule="evenodd" clip-rule="evenodd" d="M141.143 198.741C196.219 198.741 240.867 243.391 240.867 298.467C240.867 353.543 196.219 398.192 141.143 398.192C86.0653 398.192 41.4174 353.543 41.4174 298.467C41.4174 243.391 86.0653 198.741 141.143 198.741Z" fill="white"/>
<path fill-rule="evenodd" clip-rule="evenodd" d="M152.104 235.441C186.911 235.441 215.128 263.66 215.128 298.467C215.128 333.273 186.911 361.491 152.104 361.491C117.296 361.491 89.0787 333.273 89.0787 298.467C89.0787 287.035 92.1227 276.315 97.444 267.071C101.56 279.28 113.105 288.075 126.704 288.075C143.752 288.075 157.575 274.253 157.575 257.204C157.575 248.76 154.181 241.108 148.688 235.535C149.819 235.475 150.957 235.441 152.104 235.441Z" fill="#3B3B3C"/>
<path fill-rule="evenodd" clip-rule="evenodd" d="M344.299 235.441C379.107 235.441 407.324 263.66 407.324 298.467C407.324 333.273 379.107 361.491 344.299 361.491C309.492 361.491 281.275 333.273 281.275 298.467C281.275 287.035 284.317 276.315 289.639 267.071C293.755 279.28 305.3 288.075 318.899 288.075C335.948 288.075 349.769 274.253 349.769 257.204C349.769 248.76 346.377 241.108 340.883 235.535C342.013 235.475 343.153 235.441 344.299 235.441Z" fill="#3B3B3C"/>
<path fill-rule="evenodd" clip-rule="evenodd" d="M248.379 380.157C266.6 380.157 283.04 388.476 294.687 401.823L248.379 448.131V380.157Z" fill="#FBC24E"/>
<path fill-rule="evenodd" clip-rule="evenodd" d="M248.379 448.131L202.069 401.823C213.717 388.476 230.157 380.157 248.379 380.157V448.131Z" fill="#FAF89C"/>
</svg>
