<svg width="1360" height="344" viewBox="0 0 1360 344" fill="none" xmlns="http://www.w3.org/2000/svg">
<g opacity="0.4">
<path d="M-0.32608 421.582C4.22465 421.396 8.91339 421.03 13.7464 420.475L13.8113 420.468L13.8588 420.444C20.5981 417.149 27.3016 413.907 33.9656 410.723C41.5945 410.987 49.5473 410.827 57.8768 410.174L57.9492 410.17L58.0012 410.145C65.5858 406.66 73.1122 403.263 80.6071 399.912C87.5129 400.201 94.6372 400.199 102.009 399.875L102.084 399.871L102.141 399.847C110.665 396.21 119.118 392.679 127.526 389.212C133.588 389.521 139.786 389.65 146.14 389.573L146.22 389.571L146.28 389.548C155.871 385.807 165.385 382.18 174.833 378.647C179.902 378.959 185.042 379.176 190.274 379.27L190.353 379.272L190.417 379.248C201.299 375.453 212.08 371.804 222.781 368.267C226.62 368.55 230.493 368.787 234.407 368.969L234.485 368.971L234.551 368.951C247.047 365.173 259.426 361.562 271.686 358.116C273.962 358.312 276.247 358.497 278.541 358.665L278.614 358.671L278.682 358.654C293.36 354.993 307.883 351.553 322.253 348.317C322.398 348.333 322.536 348.348 322.678 348.362L322.743 348.368L322.806 348.356C356.041 342.098 388.534 336.855 420.314 332.456C448.992 329.788 477.17 327.709 504.853 326.096C529.118 326.022 553.082 326.2 576.738 326.552C591.364 327.732 605.909 328.922 620.372 330.105C626.61 330.615 632.827 331.125 639.033 331.631C911.841 375.099 1171.61 386.044 1360 268.461V268.091C1172.44 385.369 913.895 374.955 642.17 331.887C923.605 354.835 1172.39 371.851 1360 254.634V254.268C1171.82 372.058 921.893 354.485 639.166 331.41C630.631 330.05 622.08 328.651 613.524 327.23C655 328.137 695.508 329.458 735.034 330.746C983.103 338.833 1192.47 345.636 1360 240.805V240.431C1192.54 345.409 983.173 338.606 735.066 330.517C695.029 329.213 653.983 327.875 611.943 326.968C603.248 325.522 594.544 324.054 585.83 322.553C660.675 320.286 731.733 320.712 799.238 321.117C1021.93 322.455 1205.98 323.557 1360 227.011V226.634C1206.04 323.327 1021.98 322.229 799.244 320.89C731.401 320.481 659.973 320.053 584.715 322.359C575.998 320.855 567.273 319.317 558.542 317.761C659.693 310.069 753.066 309.179 839.77 308.355C1045.79 306.394 1214.19 304.778 1360 213.184V212.815C1214.23 304.553 1045.82 306.166 839.765 308.126C752.799 308.955 659.13 309.846 557.628 317.599C548.873 316.039 540.112 314.462 531.344 312.857C654.91 298.456 765.913 296.378 867.037 294.489C1061.48 290.854 1219.41 287.881 1360 199.365V198.993C1219.44 287.654 1061.5 290.625 867.018 294.26C765.684 296.156 654.434 298.239 530.56 312.715C521.808 311.114 513.05 309.486 504.287 307.847C647.804 285.944 773.425 282.933 886.033 280.239C1072.15 275.789 1222.77 272.17 1360 185.553V185.18C1222.79 271.941 1072.17 275.561 886.011 280.013C773.221 282.708 647.382 285.727 503.585 307.716C494.805 306.072 486.026 304.415 477.241 302.742C639.084 272.803 777.288 269.131 899.492 265.895C1079.52 261.126 1224.86 257.258 1360 171.742V171.367C1224.87 257.03 1079.53 260.897 899.467 265.668C777.1 268.908 638.698 272.586 476.588 302.619C467.8 300.942 459.01 299.251 450.219 297.551C629.236 259.205 778.553 255.128 909.052 251.573C1084.56 246.791 1226.05 242.917 1360 157.933V157.557C1226.06 242.687 1084.57 246.562 909.027 251.344C778.382 254.905 628.876 258.988 449.61 297.432C440.809 295.73 432.01 294.018 423.214 292.298C618.538 245.282 777.892 241.01 915.75 237.324C1087.91 232.723 1226.58 229 1360 144.121V143.746C1226.58 228.77 1087.92 232.495 915.728 237.097C777.726 240.785 618.198 245.063 422.626 292.182C413.803 290.459 404.983 288.723 396.168 286.986C607.182 231.09 775.74 226.819 920.288 223.167C1089.98 218.877 1226.6 215.408 1360 130.312V129.935C1226.61 215.177 1089.99 218.648 920.264 222.938C775.585 226.595 606.855 230.871 395.605 286.874C386.771 285.133 377.943 283.388 369.117 281.641C595.306 216.713 772.434 212.59 923.145 209.101C1091.06 205.216 1226.23 202.07 1360 116.501V116.123C1226.23 201.841 1091.07 204.987 923.123 208.875C772.285 212.365 594.993 216.493 368.57 281.533C361.333 280.101 354.101 278.668 346.875 277.236L341.978 276.264C582.993 202.158 768.179 198.339 924.674 195.128C1091.36 191.708 1225.54 188.936 1360 102.691V102.312C1225.54 188.71 1091.37 191.481 924.655 194.901C768.035 198.114 582.688 201.935 341.44 276.157C332.535 274.392 323.638 272.631 314.753 270.872C570.314 187.461 763.154 184.078 925.131 181.238C1091.04 178.332 1224.59 175.971 1360 88.8799V88.5007C1224.58 175.745 1091.04 178.103 925.115 181.012C763.015 183.853 570.018 187.242 314.23 270.771C305.304 269.006 296.388 267.245 287.486 265.496C557.331 172.694 757.506 169.811 924.715 167.427C1090.2 165.066 1223.43 163.145 1360 75.0665V74.6894C1223.43 162.918 1090.2 164.837 924.701 167.198C757.373 169.586 557.043 172.471 286.967 265.394C277.991 263.629 269.032 261.876 260.085 260.133C544.068 157.827 751.311 155.546 923.567 153.684C1088.93 151.896 1222.09 150.436 1360 61.2552V60.878C1222.08 150.209 1088.94 151.667 923.558 153.457C751.183 155.322 543.783 157.602 259.571 260.033C250.543 258.275 241.53 256.531 232.533 254.802C530.549 142.872 744.654 141.286 921.812 140.004C1087.3 138.807 1220.6 137.826 1360 47.4438V47.0647C1220.59 137.6 1087.31 138.579 921.806 139.777C744.529 141.059 530.269 142.646 232.023 254.704C222.934 252.957 213.861 251.229 204.809 249.519C516.796 127.844 737.588 127.029 919.543 126.382C1085.37 125.792 1218.99 125.303 1360 33.6325V33.2533C1218.98 125.076 1085.38 125.565 919.54 126.155C737.469 126.802 516.522 127.615 204.301 249.423C195.141 247.694 186.002 245.988 176.884 244.305C502.826 112.744 730.169 112.778 916.83 112.811C1083.19 112.84 1217.26 112.852 1360 19.8192V19.4401C1217.25 112.627 1083.2 112.613 916.83 112.582C730.049 112.549 502.551 112.516 176.378 244.211C167.153 242.509 157.953 240.832 148.779 239.185C488.649 97.6255 722.445 98.5304 913.74 99.2848C1080.78 99.9434 1215.44 100.465 1360 6.00781V5.62866C1215.42 100.24 1080.78 99.7167 913.742 99.058C722.331 98.3017 488.376 97.3988 148.278 239.095C138.972 237.424 129.693 235.784 120.443 234.178C474.264 82.4774 714.446 84.291 910.317 85.8018C1078.17 87.0975 1213.53 88.1372 1360 -7.8035V-8.18265C1213.51 87.9124 1078.18 86.8708 910.325 85.5751C714.335 84.0605 473.995 82.2487 119.94 234.09C110.532 232.458 101.154 230.861 91.8099 229.305C459.671 67.2785 706.184 70.0536 906.609 72.3559C1075.4 74.2946 1211.55 75.858 1360 -21.6149V-21.9999C1211.53 75.6294 1075.41 74.0679 906.617 72.1292C706.075 69.825 459.404 67.0479 91.3022 229.221C60.3725 224.072 29.7973 219.36 -0.32608 215.238V215.478C29.668 219.582 60.108 224.273 90.905 229.397C86.1904 231.475 81.4943 233.529 76.7421 235.659C50.7572 229.825 25.0627 224.251 -0.32608 219.098V219.342C24.9403 224.474 50.5098 230.023 76.365 235.825C71.2929 238.1 66.1571 240.463 61.036 242.806C40.3683 236.812 19.9227 230.933 -0.32608 225.299V225.561C19.8071 231.164 40.1338 237.009 60.6815 242.966C55.1809 245.481 49.6564 248.03 44.1014 250.617C37.9976 248.391 31.9177 246.171 25.8606 243.957C17.0862 240.75 8.35887 237.56 -0.32608 234.404V234.688C8.26694 237.811 16.9008 240.967 25.5806 244.139C31.6176 246.345 37.6773 248.56 43.7602 250.778C37.8667 253.524 31.9757 256.267 26.0223 259.097C17.176 255.114 8.39701 251.114 -0.32608 247.121V247.434C8.28775 251.376 16.9559 255.325 25.6897 259.258C19.4781 262.213 13.207 265.25 6.92786 268.298C4.50297 266.964 2.08489 265.625 -0.32608 264.284V264.628C1.97574 265.908 4.28276 267.184 6.59618 268.459C4.29468 269.577 1.98647 270.704 -0.32608 271.838V272.16C2.09062 270.976 4.50234 269.797 6.90639 268.631C12.5157 271.717 18.1635 274.781 23.853 277.816C16.6776 281.265 9.47134 284.756 2.20721 288.328C1.36136 287.785 0.51711 287.242 -0.32608 286.697V287.076C0.40722 287.549 1.14158 288.022 1.87691 288.493L-0.32608 289.577V289.902L2.16353 288.676C7.23894 291.928 12.3664 295.134 17.5448 298.286C11.6183 301.174 5.66031 304.108 -0.32608 307.08V307.407C5.75977 304.383 11.8152 301.401 17.8381 298.464C22.9732 301.587 28.1619 304.655 33.4111 307.659C24.9371 311.745 16.394 315.928 7.79697 320.186C5.06601 318.367 2.35929 316.52 -0.32608 314.648V315.044C2.24961 316.838 4.84593 318.607 7.46445 320.352C4.87322 321.634 2.27661 322.928 -0.32608 324.23V324.556C2.37108 323.208 5.06165 321.867 7.74596 320.536C12.4999 323.698 17.3253 326.774 22.2283 329.761C14.7629 333.419 7.23744 337.168 -0.32608 340.969V341.295C7.3365 337.443 14.9596 333.646 22.5204 329.938C27.4178 332.915 32.3922 335.798 37.4532 338.573C27.9703 343.162 18.4235 347.844 8.79012 352.65C5.70707 350.776 2.67026 348.845 -0.32608 346.863V347.246C2.56355 349.154 5.49111 351.01 8.46152 352.814C5.54106 354.272 2.61201 355.744 -0.32608 357.225V357.553C2.70924 356.021 5.7364 354.501 8.7542 352.996C13.4753 355.853 18.3053 358.575 23.2425 361.159C15.4441 364.997 7.58008 368.93 -0.32608 372.924V373.253C7.6873 369.203 15.6585 365.216 23.5618 361.325C28.499 363.901 33.545 366.338 38.7164 368.611C28.7294 373.444 18.6454 378.416 8.49256 383.489C5.49878 382.176 2.56099 380.789 -0.32608 379.334V379.667C2.45429 381.06 5.28175 382.391 8.16108 383.656C5.33851 385.067 2.50936 386.487 -0.32608 387.918V388.246C2.62784 386.755 5.57444 385.276 8.51326 383.806C13.6071 386.032 18.8588 388.049 24.2731 389.857C16.1279 393.847 7.9262 397.922 -0.32608 402.071V402.398C8.05799 398.182 16.3882 394.043 24.6604 389.988C30.1139 391.793 35.7402 393.373 41.5431 394.719C32.1196 399.23 22.627 403.838 13.0626 408.554C8.46726 407.844 4.00601 406.957 -0.32608 405.9V406.162C3.8868 407.182 8.2206 408.046 12.6816 408.742C8.3614 410.872 4.02495 413.027 -0.32608 415.205V415.531C4.19551 413.268 8.70063 411.028 13.1879 408.816C19.6332 409.801 26.3468 410.436 33.3431 410.7C26.7921 413.833 20.2025 417.022 13.5786 420.26C8.80478 420.806 4.17192 421.167 -0.32608 421.353V421.582ZM7.23818 268.47C13.528 265.416 19.811 262.373 26.0322 259.412C32.2861 262.228 38.5735 265.035 44.8985 267.825C38.0316 271.05 31.1323 274.318 24.1837 277.656C18.4953 274.621 12.8476 271.556 7.23818 268.47ZM26.3659 259.252C32.3305 256.416 38.2345 253.668 44.1397 250.915C51.064 253.44 58.0194 255.967 65.0093 258.49C58.4547 261.497 51.8647 264.554 45.2353 267.667C38.909 264.876 32.621 262.068 26.3659 259.252ZM44.4809 250.756C50.0487 248.161 55.586 245.608 61.1003 243.087C68.0273 245.096 74.9748 247.115 81.9527 249.144L84.1632 249.787C77.9321 252.582 71.6556 255.441 65.3548 258.331C58.3638 255.808 51.4071 253.279 44.4809 250.756ZM61.4548 242.927C66.5897 240.578 71.7399 238.209 76.827 235.929C85.2923 237.828 93.7883 239.757 102.315 241.706C96.426 244.289 90.4754 246.957 84.5229 249.627L82.1905 248.948C75.2517 246.932 68.3432 244.924 61.4548 242.927ZM77.2049 235.761C81.9712 233.626 86.6831 231.565 91.4124 229.479C100.756 231.037 110.133 232.63 119.54 234.262C113.945 236.663 108.348 239.065 102.697 241.541C94.1687 239.591 85.6707 237.662 77.2049 235.761ZM120.043 234.349C129.292 235.954 138.569 237.596 147.874 239.265C141.425 241.952 134.951 244.674 128.427 247.465C119.975 245.509 111.553 243.568 103.159 241.647C108.823 239.165 114.435 236.755 120.043 234.349ZM148.375 239.355C157.545 241.002 166.739 242.677 175.958 244.377C168.678 247.319 161.348 250.326 153.969 253.398C145.582 251.446 137.221 249.502 128.89 247.573C135.427 244.776 141.915 242.046 148.375 239.355ZM176.465 244.471C185.58 246.154 194.717 247.86 203.875 249.588C195.757 252.757 187.596 255.986 179.354 259.32L171.455 257.477C165.768 256.15 160.096 254.827 154.434 253.508C161.827 250.428 169.171 247.416 176.465 244.471ZM204.383 249.683C213.433 251.391 222.502 253.121 231.591 254.866C222.663 258.222 213.687 261.642 204.608 265.199C196.321 263.274 188.057 261.349 179.821 259.428C188.076 256.09 196.252 252.857 204.383 249.683ZM232.1 254.964C241.093 256.692 250.103 258.435 259.129 260.192C249.419 263.694 239.647 267.278 229.756 271.017C221.506 269.117 213.281 267.214 205.08 265.308C214.171 261.749 223.161 258.323 232.1 254.964ZM259.643 260.293C268.586 262.035 277.542 263.788 286.512 265.551C276.046 269.154 265.494 272.87 254.814 276.747C246.597 274.883 238.403 273.006 230.233 271.126C240.136 267.384 249.92 263.798 259.643 260.293ZM287.032 265.652C295.931 267.401 304.841 269.16 313.765 270.923C302.559 274.586 291.241 278.395 279.792 282.37C271.604 280.544 263.439 278.705 255.296 276.858C265.988 272.975 276.552 269.26 287.032 265.652ZM314.287 271.029C323.165 272.784 332.053 274.543 340.95 276.307C329.001 279.987 316.924 283.826 304.697 287.859C296.538 286.083 288.4 284.289 280.285 282.479C291.741 278.502 303.073 274.691 314.287 271.029ZM341.488 276.415L346.701 277.447C353.816 278.856 360.936 280.269 368.061 281.678C355.367 285.329 342.536 289.149 329.529 293.193C321.399 291.471 313.292 289.73 305.206 287.969C317.443 283.935 329.529 280.095 341.488 276.415ZM368.611 281.787C377.426 283.533 386.249 285.276 395.077 287.017C381.645 290.582 368.047 294.348 354.27 298.344C346.176 296.689 338.104 295.006 330.051 293.302C343.066 289.261 355.908 285.438 368.611 281.787ZM395.64 287.129C404.444 288.864 413.248 290.596 422.058 292.319C407.859 295.745 393.469 299.394 378.881 303.289C370.839 301.706 362.816 300.092 354.812 298.456C368.597 294.461 382.203 290.691 395.64 287.129ZM422.648 292.433C431.433 294.152 440.221 295.861 449.011 297.563C433.985 300.789 418.747 304.26 403.296 307.991C395.33 306.49 387.378 304.96 379.45 303.4C394.041 299.505 408.438 295.859 422.648 292.433ZM449.624 297.68C458.395 299.376 467.164 301.067 475.935 302.74C459.984 305.701 443.801 308.918 427.385 312.414C419.536 311.011 411.706 309.572 403.895 308.103C419.348 304.376 434.592 300.905 449.624 297.68ZM476.588 302.863C485.348 304.532 494.106 306.185 502.864 307.825C485.8 310.44 468.48 313.325 450.902 316.506C443.26 315.214 435.631 313.887 428.022 312.529C444.446 309.035 460.631 305.822 476.588 302.863ZM503.569 307.956C512.302 309.592 521.03 311.214 529.752 312.812C513.877 314.673 497.793 316.739 481.499 319.033C472.763 318.416 464.002 317.816 455.22 317.233C454.012 317.03 452.804 316.829 451.599 316.623C469.18 313.448 486.502 310.569 503.569 307.956ZM530.53 312.955C539.253 314.552 547.97 316.119 556.678 317.673C542.458 318.765 528.082 319.993 513.551 321.374C503.275 320.603 492.964 319.846 482.617 319.113C498.794 316.842 514.764 314.798 530.53 312.955ZM557.579 317.833C566.239 319.377 574.888 320.902 583.531 322.395C570.891 322.787 558.145 323.255 545.29 323.815C535.199 323.022 525.073 322.242 514.911 321.476C529.287 320.118 543.511 318.91 557.579 317.833ZM584.641 322.59C593.195 324.066 601.735 325.51 610.267 326.933C599.175 326.696 588.012 326.491 576.779 326.323C566.946 325.531 557.078 324.742 547.173 323.962C559.766 323.423 572.257 322.969 584.641 322.59ZM611.848 327.195C619.955 328.543 628.055 329.868 636.141 331.164C630.92 330.738 625.691 330.31 620.448 329.88C607.125 328.789 593.726 327.695 580.264 326.604C590.853 326.77 601.382 326.97 611.848 327.195ZM102.777 241.813C111.17 243.732 119.59 245.671 128.04 247.627C121.357 250.488 114.615 253.428 107.85 256.4C100.182 254.178 92.5477 251.96 84.9438 249.75C90.9099 247.074 96.8744 244.401 102.777 241.813ZM128.503 247.735C136.833 249.664 145.191 251.606 153.576 253.561C146.122 256.668 138.614 259.846 131.058 263.092C123.431 260.903 115.837 258.712 108.273 256.522C115.052 253.543 121.806 250.602 128.503 247.735ZM154.04 253.668C159.766 255.003 165.503 256.342 171.253 257.682L178.957 259.48C170.781 262.789 162.525 266.207 154.224 269.684C146.611 267.534 139.031 265.377 131.481 263.211C139.053 259.961 146.572 256.781 154.04 253.668ZM179.421 259.588C187.656 261.509 195.919 263.434 204.205 265.359C195.326 268.84 186.348 272.453 177.32 276.133C169.732 274.038 162.176 271.928 154.653 269.805C162.966 266.323 171.233 262.901 179.421 259.588ZM204.674 265.467C212.873 267.372 221.096 269.276 229.345 271.175C219.78 274.793 210.1 278.563 200.361 282.413C192.792 280.38 185.258 278.324 177.755 276.255C186.793 272.571 195.784 268.951 204.674 265.467ZM229.82 271.285C237.986 273.163 246.178 275.039 254.391 276.903C244.155 280.626 233.8 284.504 223.365 288.489C215.812 286.529 208.291 284.541 200.805 282.532C210.554 278.678 220.244 274.906 229.82 271.285ZM254.873 277.013C263.012 278.86 271.172 280.701 279.357 282.524C268.461 286.312 257.446 290.254 246.326 294.338C238.79 292.458 231.287 290.545 223.818 288.608C234.262 284.619 244.628 280.736 254.873 277.013ZM279.847 282.634C287.957 284.441 296.092 286.233 304.245 288.01C292.713 291.819 281.049 295.792 269.265 299.931C261.741 298.139 254.249 296.312 246.792 294.453C257.92 290.369 268.944 286.421 279.847 282.634ZM304.749 288.119C312.826 289.878 320.929 291.62 329.05 293.341C316.902 297.121 304.596 301.1 292.166 305.243C284.657 303.549 277.183 301.813 269.743 300.045C281.536 295.905 293.208 291.928 304.749 288.119ZM329.569 293.451C337.614 295.153 345.681 296.834 353.767 298.489C340.982 302.2 328.032 306.123 314.94 310.229C307.48 308.646 300.053 307.02 292.661 305.355C305.1 301.21 317.413 297.232 329.569 293.451ZM354.308 298.601C362.301 300.236 370.314 301.847 378.348 303.43C364.9 307.024 351.277 310.833 337.495 314.853C330.116 313.393 322.77 311.886 315.457 310.338C328.56 306.232 341.516 302.312 354.308 298.601ZM378.914 303.541C386.831 305.099 394.77 306.629 402.725 308.128C388.556 311.554 374.207 315.195 359.668 319.076C352.426 317.751 345.216 316.377 338.041 314.96C351.832 310.942 365.46 307.133 378.914 303.541ZM403.323 308.239C411.118 309.707 418.935 311.144 426.765 312.545C411.782 315.742 396.601 319.174 381.215 322.856C374.196 321.677 367.207 320.452 360.245 319.18C374.792 315.3 389.146 311.665 403.323 308.239ZM427.401 312.66C434.989 314.016 442.593 315.341 450.214 316.631C434.203 319.535 417.974 322.686 401.525 326.11C394.936 325.103 388.376 324.052 381.841 322.959C397.229 319.281 412.416 315.853 427.401 312.66ZM450.908 316.749C452.301 316.985 453.694 317.22 455.089 317.452L455.108 317.456H455.133C463.583 318.017 472.009 318.595 480.416 319.188C463.842 321.531 447.047 324.113 430.027 326.958C423.717 327.128 417.392 327.318 411.045 327.531C408.095 327.103 405.154 326.661 402.216 326.213C418.668 322.795 434.897 319.649 450.908 316.749ZM481.537 319.266C491.791 319.991 502.015 320.739 512.201 321.503C497.572 322.901 482.788 324.456 467.841 326.184C455.878 326.354 443.848 326.595 431.746 326.911C448.562 324.114 465.156 321.574 481.537 319.266ZM513.562 321.605C523.546 322.356 533.496 323.122 543.413 323.898C530.658 324.462 517.8 325.113 504.831 325.869C493.342 325.905 481.784 325.995 470.162 326.153C484.783 324.476 499.248 322.965 513.562 321.605ZM545.271 324.044C554.641 324.779 563.978 325.524 573.283 326.272C552.105 325.975 530.683 325.817 509.018 325.858C521.198 325.168 533.284 324.566 545.271 324.044ZM84.5838 249.91C92.187 252.12 99.8198 254.339 107.485 256.559C100.541 259.609 93.5424 262.736 86.5114 265.906C79.552 263.436 72.6279 260.954 65.7376 258.468C72.0509 255.572 78.3405 252.711 84.5838 249.91ZM107.907 256.68C115.471 258.871 123.066 261.063 130.693 263.25C123.057 266.53 115.365 269.887 107.623 273.313C100.677 270.907 93.7693 268.48 86.8975 266.043C93.941 262.867 100.952 259.736 107.907 256.68ZM131.116 263.372C138.664 265.535 146.242 267.693 153.851 269.84C145.56 273.317 137.196 276.892 128.778 280.538C121.817 278.199 114.897 275.832 108.013 273.448C115.767 270.018 123.47 266.657 131.116 263.372ZM154.28 269.962C161.801 272.084 169.353 274.195 176.939 276.29C168.006 279.933 158.998 283.677 149.919 287.517C142.964 285.266 136.049 282.981 129.174 280.671C137.602 277.021 145.978 273.44 154.28 269.962ZM177.375 276.409C184.874 278.481 192.405 280.535 199.971 282.567C190.41 286.347 180.789 290.209 171.062 294.217C164.107 292.063 157.195 289.872 150.324 287.648C159.413 283.804 168.432 280.056 177.375 276.409ZM200.414 282.686C207.896 284.695 215.413 286.681 222.962 288.643C212.837 292.511 202.618 296.507 192.304 300.631C185.318 298.577 178.377 296.48 171.477 294.346C181.215 290.336 190.845 286.47 200.414 282.686ZM223.415 288.76C230.88 290.699 238.377 292.61 245.909 294.489C235.236 298.411 224.445 302.49 213.562 306.695C206.572 304.763 199.629 302.781 192.729 300.756C203.052 296.629 213.281 292.63 223.415 288.76ZM246.374 294.606C253.828 296.464 261.316 298.292 268.838 300.082C257.61 304.028 246.269 308.12 234.806 312.377C227.825 310.575 220.89 308.722 214 306.817C224.893 302.611 235.692 298.53 246.374 294.606ZM269.315 300.197C276.751 301.966 284.216 303.699 291.72 305.392C279.969 309.312 268.087 313.403 256.081 317.659C249.095 315.994 242.154 314.27 235.261 312.494C246.731 308.237 258.08 304.141 269.315 300.197ZM292.212 305.505C299.599 307.168 307.015 308.794 314.464 310.377C302.175 314.233 289.758 318.255 277.189 322.475C270.265 320.966 263.388 319.399 256.557 317.773C268.569 313.516 280.456 309.424 292.212 305.505ZM314.984 310.487C322.286 312.035 329.621 313.54 336.989 314.999C324.169 318.74 311.197 322.68 298.078 326.81C291.238 325.463 284.442 324.052 277.692 322.584C290.264 318.365 302.689 314.343 314.984 310.487ZM337.535 315.107C344.702 316.524 351.9 317.896 359.132 319.221C345.716 322.807 332.143 326.593 318.409 330.591C311.768 329.426 305.168 328.199 298.611 326.913C311.735 322.784 324.71 318.846 337.535 315.107ZM359.709 319.326C366.652 320.595 373.622 321.82 380.625 322.997C366.513 326.38 352.23 329.972 337.769 333.79C331.466 332.817 325.2 331.781 318.975 330.691C332.714 326.694 346.29 322.909 359.709 319.326ZM381.251 323.102C387.759 324.193 394.294 325.242 400.856 326.247C385.849 329.376 370.651 332.733 355.266 336.331C349.61 335.565 343.989 334.748 338.395 333.886C352.855 330.069 367.139 326.479 381.251 323.102ZM401.55 326.352C404.676 326.829 407.81 327.298 410.949 327.755L410.99 327.761L411.031 327.759C416.837 327.564 422.626 327.388 428.4 327.23C411.08 330.14 393.521 333.325 375.728 336.814C372.781 337.146 369.83 337.484 366.875 337.83C363.221 337.383 359.584 336.912 355.96 336.423C371.342 332.829 386.54 329.477 401.55 326.352ZM430.122 327.183C442.003 326.864 453.822 326.622 465.567 326.446C450.608 328.191 435.487 330.116 420.202 332.233C406.488 333.509 392.659 334.92 378.715 336.478C396.076 333.103 413.21 330.011 430.122 327.183ZM467.901 326.413C478.909 326.254 489.859 326.157 500.747 326.112C476.063 327.585 450.987 329.434 425.51 331.744C439.783 329.804 453.911 328.031 467.901 326.413ZM65.3924 258.628C72.2802 261.112 79.2029 263.594 86.1596 266.063C78.9584 269.311 71.704 272.633 64.4102 276.008C58.0945 273.302 51.8204 270.569 45.5833 267.82C52.2247 264.702 58.8258 261.64 65.3924 258.628ZM86.5462 266.199C93.4186 268.638 100.327 271.064 107.271 273.472C99.4419 276.937 91.5544 280.484 83.6172 284.099C77.29 281.484 71.0059 278.834 64.7633 276.161C72.0688 272.78 79.3346 269.453 86.5462 266.199ZM107.661 273.606C114.542 275.991 121.461 278.355 128.42 280.695C119.993 284.346 111.497 288.092 102.943 291.919C96.5746 289.401 90.254 286.841 83.9755 284.248C91.9253 280.626 99.8225 277.075 107.661 273.606ZM128.815 280.828C135.689 283.138 142.6 285.42 149.552 287.672C140.539 291.487 131.473 295.374 122.314 299.39C115.931 296.994 109.598 294.549 103.31 292.065C111.874 288.233 120.379 284.484 128.815 280.828ZM149.957 287.803C156.825 290.027 163.734 292.218 170.685 294.371C161.17 298.292 151.545 302.365 141.865 306.512C135.423 304.239 129.033 301.909 122.693 299.533C131.861 295.513 140.935 291.622 149.957 287.803ZM171.101 294.498C177.999 296.634 184.938 298.729 191.921 300.784C181.87 304.804 171.736 308.937 161.502 313.207C155.032 311.081 148.616 308.894 142.252 306.65C151.944 302.499 161.575 298.425 171.101 294.498ZM192.347 300.909C199.242 302.933 206.181 304.915 213.165 306.848C202.641 310.915 192.016 315.123 181.291 319.465C174.773 317.489 168.312 315.445 161.905 313.34C172.146 309.068 182.288 304.933 192.347 300.909ZM213.605 306.971C220.491 308.873 227.423 310.729 234.4 312.531C223.417 316.612 212.325 320.839 201.123 325.217C194.594 323.413 188.126 321.533 181.711 319.592C192.441 315.248 203.074 311.04 213.605 306.971ZM234.854 312.646C241.742 314.423 248.674 316.147 255.653 317.81C244.238 321.861 232.703 326.071 221.051 330.441C214.499 328.813 208.003 327.112 201.566 325.338C212.771 320.958 223.869 316.729 234.854 312.646ZM256.129 317.925C262.951 319.549 269.819 321.118 276.734 322.625C264.9 326.604 252.932 330.761 240.847 335.076C234.343 333.648 227.9 332.137 221.514 330.554C233.169 326.186 244.709 321.974 256.129 317.925ZM277.238 322.735C283.979 324.202 290.765 325.615 297.596 326.962C285.315 330.83 272.914 334.859 260.365 339.085C253.966 337.861 247.624 336.56 241.339 335.184C253.428 330.869 265.4 326.712 277.238 322.735ZM298.129 327.064C304.675 328.351 311.262 329.577 317.892 330.744C305.157 334.455 292.28 338.35 279.262 342.436C273.083 341.428 266.962 340.343 260.892 339.186C273.442 334.961 285.846 330.933 298.129 327.064ZM318.461 330.843C324.667 331.932 330.911 332.968 337.195 333.943C323.899 337.459 310.457 341.168 296.864 345.081C291.14 344.295 285.462 343.445 279.83 342.532C292.849 338.448 305.726 334.553 318.461 330.843ZM337.818 334.039C343.388 334.899 348.989 335.714 354.621 336.48C340.577 339.771 326.364 343.275 311.999 346.986C307.127 346.427 302.287 345.821 297.482 345.167C311.08 341.256 324.522 337.553 337.818 334.039ZM355.309 336.573C359.129 337.091 362.963 337.586 366.812 338.059L366.867 338.065L366.924 338.059C368.91 337.826 370.891 337.598 372.871 337.371C356.194 340.666 339.304 344.229 322.199 348.079C319.016 347.764 315.849 347.422 312.696 347.064C327.058 343.357 341.268 339.861 355.309 336.573ZM375.878 337.029C389.065 335.538 402.148 334.179 415.131 332.944C385.718 337.089 355.698 341.964 325.045 347.696C342.204 343.859 359.151 340.308 375.878 337.029ZM45.2462 267.978C51.4822 270.728 57.7549 273.46 64.069 276.167C56.6093 279.62 49.0946 283.148 41.5374 286.738C35.8129 283.804 30.136 280.83 24.4995 277.826C31.4593 274.482 38.3684 271.208 45.2462 267.978ZM64.4216 276.317C70.6647 278.993 76.9481 281.641 83.2741 284.256C75.2417 287.916 67.1466 291.665 59.0018 295.483C53.2373 292.669 47.5261 289.804 41.8612 286.902C49.427 283.308 56.9521 279.776 64.4216 276.317ZM83.6338 284.404C89.9095 286.998 96.2277 289.558 102.594 292.075C94.0139 295.915 85.3709 299.843 76.6602 303.864C70.8301 301.178 65.0564 298.434 59.3318 295.644C67.4878 291.821 75.5921 288.069 83.6338 284.404ZM102.962 292.22C109.248 294.704 115.577 297.148 121.957 299.544C112.886 303.525 103.721 307.632 94.5014 311.814C88.6093 309.279 82.7757 306.68 76.9987 304.022C85.7197 299.996 94.3717 296.066 102.962 292.22ZM122.336 299.685C128.676 302.064 135.064 304.393 141.506 306.668C131.936 310.77 122.293 314.972 112.561 319.301C106.596 316.926 100.696 314.478 94.8535 311.966C104.082 307.778 113.255 303.67 122.336 299.685ZM141.894 306.805C148.253 309.046 154.665 311.235 161.131 313.362C151.139 317.534 141.041 321.851 130.87 326.27C124.825 324.073 118.846 321.797 112.931 319.446C122.669 315.117 132.319 310.909 141.894 306.805ZM161.534 313.495C167.938 315.597 174.396 317.642 180.912 319.619C170.487 323.841 159.983 328.172 149.364 332.661C143.259 330.662 137.222 328.576 131.252 326.411C141.429 321.988 151.535 317.669 161.534 313.495ZM181.331 319.747C187.741 321.685 194.205 323.565 200.729 325.369C189.957 329.581 179.069 333.955 168.091 338.452C161.911 336.656 155.805 334.766 149.766 332.792C160.39 328.301 170.9 323.97 181.331 319.747ZM201.169 325.49C207.6 327.265 214.092 328.965 220.641 330.593C209.516 334.768 198.279 339.095 186.934 343.57C180.722 341.999 174.582 340.334 168.516 338.577C179.499 334.078 190.392 329.704 201.169 325.49ZM221.102 330.708C227.482 332.289 233.917 333.802 240.414 335.233C228.976 339.319 217.417 343.572 205.75 347.973C199.555 346.64 193.437 345.208 187.389 343.683C198.736 339.21 209.975 334.883 221.102 330.708ZM240.907 335.338C247.18 336.716 253.512 338.016 259.899 339.241C248.156 343.199 236.278 347.34 224.294 351.628C218.202 350.541 212.185 349.355 206.234 348.079C217.904 343.677 229.466 339.427 240.907 335.338ZM260.424 339.341C266.483 340.498 272.593 341.584 278.758 342.595C266.679 346.388 254.466 350.365 242.139 354.499C236.3 353.662 230.526 352.736 224.818 351.724C236.803 347.438 248.681 343.298 260.424 339.341ZM279.327 342.689C284.942 343.603 290.604 344.455 296.312 345.241C283.816 348.841 271.19 352.617 258.434 356.57C253.143 355.978 247.905 355.318 242.721 354.581C255.044 350.451 267.251 346.48 279.327 342.689ZM296.93 345.327C301.71 345.982 306.523 346.589 311.368 347.148C298.249 350.543 284.997 354.114 271.605 357.876C267.394 357.512 263.217 357.1 259.074 356.643C271.821 352.693 284.442 348.923 296.93 345.327ZM312.065 347.227C315.191 347.584 318.33 347.922 321.484 348.239C307.317 351.432 293.004 354.827 278.538 358.435C276.454 358.28 274.381 358.116 272.316 357.94C285.702 354.182 298.948 350.615 312.065 347.227ZM24.1689 277.984C29.8035 280.99 35.4791 283.962 41.2022 286.896C33.4805 290.564 25.7033 294.311 17.8773 298.124C12.6985 294.971 7.57072 291.764 2.49352 288.512C9.76732 284.934 16.9825 281.439 24.1689 277.984ZM41.5257 287.062C47.1909 289.962 52.9021 292.827 58.6653 295.642C50.4195 299.507 42.1077 303.465 33.7441 307.497C28.4949 304.495 23.3057 301.427 18.1706 298.303C26.006 294.485 33.7931 290.734 41.5257 287.062ZM58.9972 295.802C64.7198 298.593 70.4911 301.335 76.3201 304.02C67.5686 308.062 58.7605 312.181 49.8765 316.408C44.5364 313.569 39.2635 310.651 34.0483 307.671C42.4219 303.635 50.7422 299.673 58.9972 295.802ZM76.6586 304.178C82.4345 306.834 88.2673 309.435 94.1578 311.97C84.9664 316.143 75.6895 320.434 66.35 324.812C60.8954 322.146 55.5088 319.403 50.1921 316.577C59.084 312.345 67.8986 308.224 76.6586 304.178ZM94.5107 312.123C100.351 314.634 106.247 317.083 112.21 319.455C102.594 323.733 92.8946 328.127 83.1169 332.632C77.5618 330.171 72.0882 327.611 66.6806 324.974C76.0274 320.593 85.3113 316.297 94.5107 312.123ZM112.58 319.602C118.493 321.951 124.471 324.228 130.515 326.426C120.511 330.775 110.435 335.221 100.257 339.814C94.5817 337.568 88.985 335.225 83.4659 332.784C93.2516 328.277 102.957 323.882 112.58 319.602ZM130.896 326.565C136.863 328.731 142.897 330.818 149 332.817C138.687 337.179 128.263 341.698 117.764 346.322C111.965 344.309 106.256 342.182 100.623 339.96C110.807 335.366 120.888 330.916 130.896 326.565ZM149.402 332.948C155.435 334.922 161.536 336.812 167.71 338.606C157.106 342.952 146.396 347.447 135.596 352.067C129.695 350.309 123.883 348.436 118.156 346.457C128.659 341.831 139.086 337.312 149.402 332.948ZM168.135 338.731C174.196 340.49 180.33 342.155 186.537 343.726C175.679 348.012 164.717 352.443 153.657 357.014C147.684 355.527 141.808 353.912 136.013 352.193C146.816 347.572 157.529 343.077 168.135 338.731ZM186.991 343.842C193.032 345.366 199.144 346.799 205.329 348.133C194.275 352.306 183.112 356.629 171.849 361.097C165.846 359.891 159.933 358.568 154.11 357.125C165.171 352.556 176.134 348.126 186.991 343.842ZM205.814 348.237C211.756 349.513 217.763 350.701 223.845 351.79C212.623 355.806 201.292 359.977 189.858 364.29C183.932 363.375 178.095 362.341 172.343 361.194C183.605 356.731 194.763 352.409 205.814 348.237ZM224.367 351.886C230.062 352.898 235.821 353.826 241.645 354.665C230.245 358.491 218.742 362.459 207.128 366.584C201.472 365.953 195.897 365.216 190.399 364.374C201.826 360.065 213.151 355.898 224.367 351.886ZM242.219 354.749C247.384 355.488 252.607 356.146 257.877 356.74C246.253 360.346 234.51 364.118 222.668 368.031C217.626 367.657 212.652 367.192 207.734 366.651C219.338 362.531 230.829 358.57 242.219 354.749ZM258.517 356.813C262.637 357.272 266.789 357.684 270.976 358.052C258.889 361.452 246.688 365.015 234.375 368.738C230.668 368.564 226.999 368.339 223.359 368.077C235.184 364.173 246.909 360.411 258.517 356.813ZM33.7164 307.833C38.9297 310.811 44.2015 313.727 49.541 316.567C40.6124 320.818 31.6236 325.152 22.5585 329.596C17.6572 326.61 12.8318 323.532 8.07777 320.372C16.6842 316.108 25.2337 311.921 33.7164 307.833ZM49.855 316.737C55.1725 319.559 60.5586 322.305 66.0121 324.97C56.6759 329.35 47.2728 333.822 37.7881 338.411C32.7258 335.633 27.7502 332.751 22.8522 329.774C31.9234 325.328 40.9195 320.989 49.855 316.737ZM66.343 325.133C71.7489 327.769 77.222 330.329 82.7765 332.79C73.0972 337.25 63.3255 341.842 53.4849 346.531C48.2659 343.994 43.1421 341.34 38.0999 338.581C47.5911 333.99 57.0002 329.514 66.343 325.133ZM83.1264 332.942C88.6412 335.381 94.2348 337.725 99.9074 339.97C89.9253 344.475 79.8344 349.136 69.682 353.883C64.2965 351.61 59.0084 349.21 53.8152 346.693C63.6615 342.003 73.4406 337.406 83.1264 332.942ZM100.273 340.115C105.903 342.339 111.609 344.465 117.405 346.48C107.156 350.995 96.8162 355.638 86.3885 360.407C80.8329 358.417 75.3878 356.285 70.0368 354.034C80.1949 349.283 90.2888 344.623 100.273 340.115ZM117.798 346.613C123.521 348.595 129.33 350.467 135.226 352.224C124.78 356.695 114.247 361.29 103.615 366.023C97.8914 364.339 92.2751 362.511 86.7669 360.545C97.2009 355.775 107.544 351.129 117.798 346.613ZM135.645 352.349C141.434 354.071 147.305 355.685 153.273 357.172C142.706 361.542 132.047 366.041 121.291 370.679C115.425 369.317 109.676 367.8 104.034 366.147C114.664 361.413 125.198 356.818 135.645 352.349ZM153.721 357.288C159.535 358.73 165.441 360.053 171.434 361.261C160.814 365.474 150.095 369.827 139.284 374.31C133.324 373.286 127.48 372.109 121.746 370.786C132.499 366.15 143.156 361.654 153.721 357.288ZM171.929 361.358C177.669 362.508 183.494 363.543 189.406 364.46C178.801 368.464 168.097 372.608 157.306 376.878C151.36 376.198 145.525 375.369 139.8 374.396C150.603 369.917 161.315 365.568 171.929 361.358ZM189.949 364.544C195.429 365.386 200.986 366.127 206.622 366.762C196.074 370.511 185.431 374.398 174.7 378.408C168.994 378.054 163.391 377.562 157.883 376.942C168.662 372.68 179.355 368.543 189.949 364.544ZM207.229 366.829C212.125 367.372 217.074 367.843 222.091 368.22C211.55 371.707 200.931 375.303 190.213 379.039C185.183 378.949 180.237 378.742 175.358 378.449C186.072 374.445 196.698 370.571 207.229 366.829ZM37.765 338.743C42.8055 341.5 47.9315 344.154 53.1486 346.691C43.3649 351.354 33.5196 356.103 23.5751 360.997C18.6372 358.411 13.8057 355.691 9.0827 352.83C18.7231 348.02 28.2761 343.335 37.765 338.743ZM53.4792 346.853C58.6715 349.37 63.9572 351.768 69.3414 354.043C59.3256 358.73 49.2371 363.522 39.054 368.447C33.881 366.176 28.8336 363.739 23.8942 361.163C33.8431 356.269 43.6914 351.518 53.4792 346.853ZM69.6967 354.192C75.0441 356.445 80.4887 358.575 86.0413 360.567C75.8761 365.218 65.6269 369.991 55.2887 374.89C49.8667 372.959 44.5742 370.858 39.4052 368.599C49.5897 363.672 59.6806 358.88 69.6967 354.192ZM86.4197 360.706C91.9239 362.672 97.5344 364.499 103.253 366.188C93.017 370.745 82.6938 375.434 72.2835 380.245C66.6088 378.684 61.0739 376.942 55.6687 375.027C66.0064 370.128 76.2557 365.355 86.4197 360.706ZM103.672 366.309C109.308 367.964 115.053 369.479 120.912 370.843C110.703 375.246 100.411 379.768 90.0295 384.422C84.1124 383.259 78.3465 381.899 72.7136 380.361C83.1201 375.551 93.4407 370.864 103.672 366.309ZM121.366 370.95C127.09 372.273 132.92 373.456 138.869 374.484C128.821 378.652 118.693 382.936 108.48 387.345C102.341 386.597 96.3493 385.657 90.5048 384.519C100.88 379.87 111.165 375.35 121.366 370.95ZM139.384 374.568C145.095 375.543 150.914 376.376 156.844 377.06C147.102 380.916 137.274 384.895 127.38 388.975C121.114 388.651 115.003 388.125 109.032 387.41C119.233 383.009 129.348 378.731 139.384 374.568ZM157.421 377.124C162.908 377.748 168.491 378.246 174.175 378.607C164.868 382.088 155.498 385.661 146.052 389.345C139.901 389.419 133.892 389.3 128.014 389.01C137.89 384.941 147.698 380.972 157.421 377.124ZM39.0676 368.761C44.2349 371.021 49.5247 373.12 54.944 375.053C44.92 379.805 34.8016 384.695 24.6106 389.689C19.1939 387.885 13.9413 385.866 8.84507 383.64C18.9974 378.566 29.0809 373.595 39.0676 368.761ZM55.3251 375.189C60.7243 377.103 66.2537 378.848 71.9222 380.411C62.0027 384.998 51.9855 389.724 41.9033 394.547C36.092 393.203 30.4586 391.625 24.9992 389.821C35.1866 384.83 45.3028 379.94 55.3251 375.189ZM72.3526 380.527C77.977 382.065 83.7374 383.427 89.6453 384.594C80.0058 388.915 70.2705 393.38 60.4783 397.926C54.2437 397.088 48.2055 395.991 42.3525 394.653C52.4282 389.833 62.438 385.11 72.3526 380.527ZM90.1215 384.689C95.9524 385.829 101.93 386.777 108.054 387.529C98.9217 391.473 89.7104 395.534 80.4416 399.677C73.7532 399.394 67.2827 398.821 61.0069 397.995C70.7817 393.459 80.4996 389.003 90.1215 384.689ZM108.606 387.595C114.556 388.315 120.648 388.844 126.891 389.177C118.61 392.591 110.287 396.07 101.894 399.65C94.7324 399.965 87.8067 399.968 81.0856 399.701C90.3225 395.573 99.5047 391.524 108.606 387.595ZM41.9928 394.825C47.8338 396.165 53.8568 397.27 60.0762 398.112C51.372 402.155 42.6153 406.273 33.7942 410.487C26.7731 410.235 20.0368 409.607 13.5689 408.628C23.1139 403.924 32.5876 399.324 41.9928 394.825ZM60.6059 398.18C66.8591 399.013 73.3021 399.595 79.9631 399.892C72.5934 403.187 65.1929 406.529 57.7351 409.955C49.6216 410.588 41.8642 410.753 34.4172 410.508C43.2068 406.312 51.9325 402.208 60.6059 398.18Z" fill="#DCEAF4"/>
</g>
</svg>
