<svg width="20" height="20" viewBox="0 0 20 20" fill="none" xmlns="http://www.w3.org/2000/svg">
<path fill-rule="evenodd" clip-rule="evenodd" d="M17.0038 2.90722C15.1342 1.03491 12.6415 0.00278203 9.99026 0C4.52914 0 0.0806785 4.44568 0.0806785 9.90958C0.0806785 11.6567 0.536931 13.3621 1.40492 14.8644L0 20L5.25525 18.6201C6.70191 19.4102 8.33217 19.8275 9.99026 19.8275H9.99304C15.4542 19.8275 19.8998 15.3818 19.9026 9.91793C19.9054 7.26944 18.8761 4.77952 17.0038 2.90444V2.90722ZM9.99583 18.1555H9.99304C8.51579 18.1555 7.06357 17.7577 5.80053 17.0065L5.50007 16.8285L2.38142 17.6464L3.21324 14.6056L3.0185 14.2941C2.19502 12.9809 1.75824 11.4675 1.75824 9.90958C1.76102 5.36653 5.45556 1.672 10.0014 1.672C12.202 1.672 14.269 2.53165 15.8242 4.0868C17.3793 5.64195 18.2362 7.71456 18.2334 9.91515C18.2334 14.461 14.5361 18.1555 9.99583 18.1555ZM14.5138 11.985C14.2662 11.8626 13.0477 11.2616 12.8224 11.181C12.597 11.1003 12.4301 11.0586 12.2632 11.3034C12.0963 11.551 11.6233 12.1074 11.4786 12.2743C11.334 12.4412 11.1893 12.4607 10.9417 12.3383C10.6941 12.2159 9.89567 11.9516 8.95257 11.1086C8.21533 10.4521 7.72013 9.63973 7.57268 9.39213C7.42801 9.14453 7.55877 9.00821 7.68118 8.8858C7.79246 8.77452 7.92878 8.59647 8.05119 8.4518C8.17638 8.30714 8.21811 8.2042 8.29879 8.04006C8.37947 7.87314 8.34052 7.72847 8.27653 7.60606C8.21255 7.48087 7.71734 6.26513 7.51426 5.76714C7.31117 5.28585 7.11086 5.34984 6.95507 5.34149C6.8104 5.33593 6.64348 5.33315 6.48212 5.33315C6.32077 5.33315 6.04813 5.39713 5.82278 5.64474C5.59744 5.89234 4.95757 6.49325 4.95757 7.71178C4.95757 8.93031 5.84504 10.1099 5.96745 10.2712C6.08986 10.4382 7.71456 12.9364 10.1989 14.0103C10.7887 14.2662 11.2505 14.4165 11.6094 14.5333C12.2048 14.7225 12.7445 14.6975 13.1673 14.6335C13.6431 14.5611 14.6335 14.0325 14.8393 13.4567C15.0452 12.878 15.0452 12.3828 14.984 12.2799C14.9228 12.1769 14.7587 12.1185 14.5111 11.9905L14.5138 11.985Z" fill="#1675B5"/>
</svg>
